<mxfile host="app.diagrams.net" modified="2022-03-07T09:10:59.410Z" agent="5.0 (Windows NT 10.0; Win64; x64) AppleWebKit/537.36 (KHTML, like Gecko) Chrome/99.0.4844.51 Safari/537.36" etag="ilqLzPO5CurFkV4F6-p2" version="16.6.2" type="github">
  <diagram id="DAaodWITPSFvSOZAXtGW" name="Page-1">
    <mxGraphModel dx="782" dy="468" grid="1" gridSize="10" guides="1" tooltips="1" connect="1" arrows="1" fold="1" page="1" pageScale="1" pageWidth="827" pageHeight="1169" math="0" shadow="0">
      <root>
        <mxCell id="0" />
        <mxCell id="1" parent="0" />
        <mxCell id="n1MMODj_7CmGyAd2-wIu-4" style="edgeStyle=orthogonalEdgeStyle;rounded=0;orthogonalLoop=1;jettySize=auto;html=1;exitX=0.75;exitY=0;exitDx=0;exitDy=0;entryX=0.75;entryY=1;entryDx=0;entryDy=0;" parent="1" source="n1MMODj_7CmGyAd2-wIu-1" target="n1MMODj_7CmGyAd2-wIu-2" edge="1">
          <mxGeometry relative="1" as="geometry">
            <Array as="points">
              <mxPoint x="420" y="260" />
            </Array>
          </mxGeometry>
        </mxCell>
        <mxCell id="n1MMODj_7CmGyAd2-wIu-6" style="edgeStyle=orthogonalEdgeStyle;rounded=0;orthogonalLoop=1;jettySize=auto;html=1;entryX=0.25;entryY=0;entryDx=0;entryDy=0;" parent="1" source="n1MMODj_7CmGyAd2-wIu-1" target="n1MMODj_7CmGyAd2-wIu-5" edge="1">
          <mxGeometry relative="1" as="geometry">
            <Array as="points">
              <mxPoint x="360" y="340" />
              <mxPoint x="360" y="340" />
            </Array>
          </mxGeometry>
        </mxCell>
        <mxCell id="n1MMODj_7CmGyAd2-wIu-9" style="edgeStyle=orthogonalEdgeStyle;rounded=0;orthogonalLoop=1;jettySize=auto;html=1;exitX=1;exitY=0.5;exitDx=0;exitDy=0;" parent="1" source="n1MMODj_7CmGyAd2-wIu-1" target="n1MMODj_7CmGyAd2-wIu-8" edge="1">
          <mxGeometry relative="1" as="geometry" />
        </mxCell>
        <mxCell id="n1MMODj_7CmGyAd2-wIu-1" value="&lt;b&gt;WebSub&lt;/b&gt;" style="rounded=0;whiteSpace=wrap;html=1;" parent="1" vertex="1">
          <mxGeometry x="320" y="260" width="140" height="60" as="geometry" />
        </mxCell>
        <mxCell id="n1MMODj_7CmGyAd2-wIu-3" style="edgeStyle=orthogonalEdgeStyle;rounded=0;orthogonalLoop=1;jettySize=auto;html=1;exitX=0.25;exitY=1;exitDx=0;exitDy=0;entryX=0.25;entryY=0;entryDx=0;entryDy=0;" parent="1" source="n1MMODj_7CmGyAd2-wIu-2" target="n1MMODj_7CmGyAd2-wIu-1" edge="1">
          <mxGeometry relative="1" as="geometry">
            <Array as="points">
              <mxPoint x="355" y="190" />
            </Array>
          </mxGeometry>
        </mxCell>
        <mxCell id="n1MMODj_7CmGyAd2-wIu-2" value="MOSIP Services" style="rounded=0;whiteSpace=wrap;html=1;" parent="1" vertex="1">
          <mxGeometry x="330" y="130" width="120" height="60" as="geometry" />
        </mxCell>
        <mxCell id="n1MMODj_7CmGyAd2-wIu-12" style="edgeStyle=orthogonalEdgeStyle;rounded=0;orthogonalLoop=1;jettySize=auto;html=1;exitX=0.75;exitY=0;exitDx=0;exitDy=0;" parent="1" source="n1MMODj_7CmGyAd2-wIu-5" edge="1">
          <mxGeometry relative="1" as="geometry">
            <mxPoint x="418" y="320" as="targetPoint" />
            <Array as="points">
              <mxPoint x="418" y="400" />
            </Array>
          </mxGeometry>
        </mxCell>
        <mxCell id="n1MMODj_7CmGyAd2-wIu-5" value="Partners" style="rounded=0;whiteSpace=wrap;html=1;" parent="1" vertex="1">
          <mxGeometry x="330" y="400" width="120" height="60" as="geometry" />
        </mxCell>
        <mxCell id="n1MMODj_7CmGyAd2-wIu-8" value="" style="shape=image;verticalLabelPosition=bottom;labelBackgroundColor=default;verticalAlign=top;aspect=fixed;imageAspect=0;image=data:image/jpeg,/9j/4AAQSkZJRgABAQEAZABkAAD/2wBDAAMCAgMCAgMDAwMEAwMEBQgFBQQEBQoHBwYIDAoMDAsKCwsNDhIQDQ4RDgsLEBYQERMUFRUVDA8XGBYUGBIUFRT/2wBDAQMEBAUEBQkFBQkUDQsNFBQUFBQUFBQUFBQUFBQUFBQUFBQUFBQUFBQUFBQUFBQUFBQUFBQUFBQUFBQUFBQUFBT/wAARCAGGAlgDAREAAhEBAxEB/8QAHgABAAICAwEBAQAAAAAAAAAAAAgJBwoDBQYCBAH/xABWEAABAwMCAwQEBwoLBQUJAAAAAQIDBAUGBxEIEiEJEzFBFCJRYTI4QnF2gbIVFjNSYnR1kaG0GSMkNTdDcoKVsdM2VldzszRTY4OTFyVEVYSUosLw/8QAFAEBAAAAAAAAAAAAAAAAAAAAAP/EABQRAQAAAAAAAAAAAAAAAAAAAAD/2gAMAwEAAhEDEQA/ALUwAAAAAAAAAAAAAAAAAAAAAAAAAAAAAAAAAAAAAAAAAAAAAAAAAAAAAAAAAAAAAAAAAAAAAAAAAAAAAAAAAAAAAAAAAAAAAAAAAAAAAAAAAAAAAAAAAAAAAAAAAAAAAAAAAAAAAAAAAAAAAAAAAAAAAAAAAAAAAAAAAAAAAAAAAAAAAAAAAAAAAAAAAAAAAAAAAAAAAAAAAAAAAAAAAAAAAAAAAAAAAAAAAAAAAAAAAAAAAAAAAAAAAAAAAAAAAAAAAAAAAAAAAAAAAAAAAAAAAAAAAAAAAAAAAAAAAAAAAAAAAAAAAAAAAAAAAAAAAAAAAAAAAAAAAAAAAAAAAAAAAAAAAAAAAAAAAAAAAAAAAAAAAAAAAAAAAAAAAAAAAAAAAAAAAAAAAAAAAAAAAAAAAAAAAAAAAAAAAAAAAAAAAAAAAAAAAAAAAAAAAAAAAAAAAAAAAAAAAAAAAAAAAAAAAAAAAAAAAAAAAAAAAAAAAAAAAAAAAAAAAAAAAAAAAAAAAAAAAAAAAAAAAAAAAAAAAAAAAAAAAAAAAAAAAAAAAAAAAAAAAAAAAAAAAAAAAAAAAAAAAAAAAAAAAAAAAAAAAAAAAAAAAAAAAAAAAAAAAAAAAAAAAAAAAAAAAAAAAAAAAAAAAAAAAAAAAAAAAAAAAAAAAAAAAAAAAAAAAAAAAAAAAAAAAAAAAAAAAAAAAAAAAAAAAAAAAAAAAAAAAAAAAAAAAAAAAAAAAAAAAAAAAAAAAAAAAAAAAAAAAAAAAAAAAAAAAAAAAAAAAAAAAAAAAAAAAAAAAAAAAAAAAAAAAAAAAAAAAAAAAAAAAAAAAAAAAAAAAAAAAAAAAAAAAAAAAAAAAAAAAAAAAAAAAAAAAAAAAAAAAAAAAAAAAAAAAAAAAAAAAAAAAAAAAAAAAAAAAAAAAAAAAAAAAAAAAAAAAAAAAAAAAAAAAAAAAAAAAAAAAAAAAAAAAAAAAAAAAAAAAAAAAAAAAAAAAAAAAAAAAAAAAAAAAAAAAAAAAAAAAAAAAAAAAAAAAAAAAAAAAAAAAAAAAAAAAAAAAAAAAAAAAAAAAAAAAAAAAAAAAAAAAAAAAAAAAAAAAAAAAAAAAAAAAAAAAAAAAAAAAAAAAAAAAAAAAAAAAAAAAAAAAAAAAAAB/FXYDrJcns1PUtp5btQx1DvgxPqWI9fmTfcDsY5GSsR7HNexfBzV3RQPsAAAAAAAAAAAAAAAAAAAAAAAAAAAAAAAAAAAAAAAAAAAAAAAAAAAAAAAAAAAAAAAAAAAAAAAAAAAAAAAAAAImcavaDYnwnUv3Eo4I8o1BqYu8hszJOWKkaqerLUvTq1F8UYnrO/JReYCnzWnjY1l14uE0uSZrcILe927LRaZXUdHGnsSNipzfO9XL7wMHve6V7nvcr3uXdXOXdVUDJGlvEnqhovcIqvDc4vFl7tUX0ZlS6SmeieToX7scnuVoFqvBP2qFr1nulBhGp8FJjeX1LkhortTryUNwkXojHIq/wATIq+Cbq1y9EVqqjVCwkAAAAAAAAAAAAAAAAAAAAAAAAAAAAAAAAAAAAAAAAAAAAAAAAAAAAAAAAAAAAAAAAAAAAAAAAAAAAAAAAwjxj8RlNwvaD33MlbHNeFRKG0Usq+rNWyIvd7p5taiOe5PxWKBrs5TlF2zbI7lf77Xz3S83Kd9VV1lS7mklkcu7nKvz/q8APnHMau2YXuks1itlXeLtVv7unoaGF000rvY1jUVVAlBbOyz4j7naGV6YRBTI5ivSmqbrSxz/MrFk6L7lAj1qXpNmOjmRPsObY5cMaurU5kgr4VZ3jfxmO+C9v5TVVPeB5Nrla5FRdlTqip5AXndlxxZ1fEHpHUYvk1Z6VmeJJHBLUSO3kraN26QzO9rm8qscvuaq9XATZAAAAAAAAAAAAAAAAAAAAAAAAAAAAAAAAAAAAAAAAAAAAAAAAAAAAAAAAAAAAAAAAAAAAAAAAAAAAAAAVIdtzn1TUZlpzhTJlSjpaGe7SxIvR0kj+6Yq/M2J+39pQKxgLx+yv4XbJpPoXadQa2iiqM0y6n9LdWSM3fS0Tl/iYY1X4KOaiPdt4q5EXdGoBOEDC/Fnw14/wAUGj93xe60kK3eOF89luStTvaKrRvqOa7x5XKiNc3wVqr5oioGuNXUU1traikqGLFUU8jopGL4tc1dlT9aKBLTsrc/qMJ4ycVo2PVtJkFPVWmoajtkcixOlZunn/GRM/WBfaAAAAAAAAAAAAAAAAAAAAAAAAAAAAAAAAAAAAAAAAAAAAAAAAAAAAAAAAAAAAAAAAAAAAAAAAAAAAAAApp7a+wTUmvWE3dyL6PW476OxdunNFUSK5P1St/WBXaBsVcB2otu1N4TNOLjb5YnuorXFaquKPZFhqKdqRPa5E8F9VHJ7Uci+YGfgOpyzJ7bhOMXbILxUso7Va6WWsqqiRyI2OKNqucqqvuRQNYPLb0mSZVebu1ndpX1s1UjPxed6u2/aBn3s5LDPkPGlphDC1ypT10tZI5qb8rIqeR6qvu9VE+sDYVAAAAAAAAAAAAAAAAAAAAAAAAAAAAAAAAAAAAAAAAAAAAAAAAAAAAAAAAAAAAAAAAAAAAAAAAAAAAAAAQj7WLh7q9Y+HmPJbNSuqr7hcz7j3cbd3yUTm7VLUTzVqNZJ80bvaBRmBIfhB418z4Q8kqZrPHHe8YuDmuuWP1cisjmVE2SSN6IvdyInTm2VFToqLsmwWP2zto9Haiy+kV2NZbRXJG7rRR08Ereb2JJ3qdPfsnzAQo40u0qynihtUmJWK2uw/A3PR89J33eVVwVq7t756IiIxFTfu29N0RVV2ybBDAC0zsX+HypW4ZJrDdaV0dIkTrNZXPT8K5VRamVvubysYi+1Xp5AWuAAMe60a/YDw+40t8zzJKSxUjt0ghkVX1FS5E35Yom7vevzJsnmqIBX5qZ23FtpKyWnwDTma406KqMr7/WpBzdfHuY0cu399AMe23tudQoqtXXDTvGaql5ukdNUVEL9vZzOc9N/fy/UBJzQntd9JdT62mteXUtXpxdJlRrZq96VFArvYs7URWdfN7Gp7VQCclHW09yo4KukniqqWdiSRTwvR7JGqm6Oa5OioqdUVAOcAAAAAAAAAAAAAAAAAAAAAAAAAAAAAAAAAAAAAAAAAAAAAAAAAAAAAAAAAAAAAAAAAAAAAAD4kjZLG5j2o+NyK1zXJuioviioBThx+9mXetP75dNQNJ7TJdsOqXOqa2wUTFfUWpy9XLGxOr4PFdk6s8NuVN0CupzVY5WuRUci7Ki+QH8AASx4Lez8zLijvtHdrlTVON6cQyI6qvU0fK+rai9YqVF+G5fDn+C3z3VOVQvbwnCrLpziVpxjHLfFa7Ha6dtLSUkKerGxqdPeqr1VVXqqqqr1UDvAMHcX/FHZeE/SOrym4MZXXioctLZ7Ur+VaupVN0380Y1PWcvsTZOqoBr+au6xZdrpm9dlmaXia8Xiqd8KRdo4WeUcTPBjE8mp/mqqB4sAAAmx2e3H5eOHbLLfh2X3GWv0wuEyRObO5XLZ3uX8PEvike6+uzw23cibovMF5kE8VXBHPBIyaGRqPZJG5HNc1U3RUVOioqeYHIAAAAAAAAAAAAAAAAAAAAAAAAAAAAAAAAAAAAAAAAAAAAAAAAAAAAAAAAAAAAAAAAAAAAAAAAivxbcFujepGAZlllzwqipcmobTV10d1te9JM+WOF72rJ3ao2Tq1N1eir7wNf8C4HsxuDjSHNuH/G9Sclw+myPKaqqq2ukur3T07O6qHsZywKvd+DU6qi9eoFkVPTxUcEcEETIYImoxkcbUa1jUTZERE6IiJ5AcoACiPtWtbanVPiluuPxVDn2PDY0tNNFv6vfqjX1L9vbzryL7okAhoxiyORrUVzlXZEROqqBb5wadk5iltxK2ZZrNRS3zIK6JtRHjTpXRU1A1ybtbNyKjpJdlRVTdGtXps7bcCUuVdn5w+ZbZpLbPpfZLe1zeVtTaolpJ2LttzJJGqKq/PunuAqM49OBe4cIeU0VbbKye94FeXuZb6+dqd9Tyom60823RXbdWuRERyIvRFaqARQAve7KfWyq1b4W6K2XOpdU3bEap1le967udTo1r6dV+ZjuT/ywJlAAAAAAAAAAAAAAAAAAAAAAAAAAAAAAAAAAAAAAAAAAAAAAAAAAAAAAAAAAAAAAAAAAAAAAAAPC67/0H6h/R24/u0gGsiBfT2UPxJMP/PLj+9ygS/AAANZjiGq56/XzUioqXrJPJklxV73eKr6TIB6Hg5sltyPio0rt13ax9vmyGk7xknwXqkiOa1d/FFciJt57gbIwACJ3alWa3XbglzuW4I1JKCShqqR7vFk/pcTE296te9vzOUCggC1bsOambu9X6fnX0fe1ycnlzfylN/1AWpAAAACpbiN7VrVzSTXfO8Ms9nxWe12O7z0NNJV0czpXRsdsiuVJkRV+ZEA++G3tV9W9X9esFwu8WfFoLVfLrDRVMlJRzNlaxy7KrVWZURfnRQLZgAAAAAAAAAAAAAAAERuM7tFcO4Uplx2jo1y3PpIkkS0wy93DRtcm7X1Emy8u/RUY1FcqdV5UVFUK2M77WTiFy+plW3X+24nSPVeWmtFsiXlTy9eZJHb+9FT5gJK9lTxQaqa566ZXbM7zS4ZJbqfH31cVLVIxI45UqIGo9Ea1Nl5XOT6wJmccmvOQcNvDxeM5xinoaq70lXSwRx3GN0kKtklax26Nc1d9l6dQKzv4Z/W7/wCRYb/9jUf64FgXZ18U2WcWGluSZHl9Ja6Out16W3wstUL441jSCKTdyPe5VXd6+fsAlcAAAAAAAAAAAAAAAAAAAAAAAAAAAAAAAAAAAAAAAOCtrae20c9XVzxUtLBG6WaeZ6MZGxqbuc5y9ERERVVV8AKz+KzthKDGq6txvRehpr5VRK6KXKbg1XUrXIuyrTxdFl9z3KjfY1ydQK2tUOJfVLWaslnzHO73eWPVV9EfVujpWb+TYWbRtT5mgYzA9dgWr2b6W10dXiGW3rG52Lui22ukhavXfZzWrs5PaioqKBPrhn7YzJ8cq6OzaxW9mSWhVbGuQW2JsVdCnROaSJNmSp5ryo13j8LwAtfwLUDHdUMUoMlxS70t9sVcznp62kfzMcnmi+bXIvRWqiKi9FRFA4dRNTMW0lxipyLML9RY9ZqdPXqq2VGIq+TWp4vcvk1qKq+SAa5XExleM53r/n2R4dJPLjV2u89dRvqYe5erZHc7vU8UTmV22/XbbdEXoB4PHr9XYtf7berZO6luVuqY6ylnb4xyxuR7HJ8yoigbBvB/xp4ZxVYRQy01fS2zNoIWtumOyyo2ZkqJ60kTVXeSJV3VHJvtvs7ZQJC1dXBQUstTVTx01NC1XyTTPRjGNTqqqq9ERE8wKf8AtUuOSwauU9LpRgFwZdrFQ1bau8XimdzQVU7EVI4YnfLYxVVznJ0V3Ltvy7qFboF0vYzaXVOJcPuQZfVwrE/K7rvTKqbc9NTNWNrv/UdOn1AWBgAAADXG44Pjeau/SOr+2oHLwL/HA0k+kFN9oDY0AAAAAAAAAAAAAAA85qNmNPp3p/kuU1SI6msttqLhI1V2RyRRuft9fLsBrLZzmd21FzG9ZRfap9bd7vVyVlVPI7dXSPcrl+ZE32RPJERE8APZcO3DxlvE3qTS4biEES1j43VFTWVTlbT0cDVRHSyORFXbdURERFVVVEQC4fgc7O2bhBzm6ZVVZuzJKu42p1tko4besEcarLHJzo9ZHKv4PbbZPED9va0fEryX9I2/94aBQ6Bct2JnxfM4+lDv3SnAsSAAAAAAAAAAAAAAAAAAAAAAAAAAAAAAAAAAAAAAAFM/agcdtdqVldy0mwe5Pp8MtUq094rKWTb7q1LV9aPdPGGNU228HORV6ojQK7wAHo6bTbLqyg9Np8WvU9Fsi+kxW6Z0e3t5kbsB5+aF9PK+KVjopWLyuY9NlavsVPID4Az9ws8auoPCZVXZMXmguNpuUL0ls9z530rZ9tmVDWtVFR7dk32VOZOi+SoGP9ZNd871+yh9+zrIqu+1qqvdMldywUzVX4EUTdmxt9zUTfz3UDp9PtM8r1XyBljw7Hrjkl1e1X+i26B0rmtRN1c7bo1PeuyAefrKOot9XPS1UElNVQPdFLBMxWPje1dnNc1eqKioqKigKSsnt9TFU0s8lNUROR8c0L1Y9jk8FRU6ooHpb/qxm+V25Lfe8xv94oETb0Wvuc88Xt+C5yoB5QDNHChwvZLxVapUWM2WGWC0xPbNeLxybxUFNv1cq+CvdsqMb4uX3IqoGxHg2F2jTjDrLi9gpW0VmtFJHRUkDfkxsaiJuvmq7bqvmqqvmB3oAAAA1xuOD43mrv0jq/tqBy8C/wAcDST6QU32gNjQABHXIe0M4d8Wvtws9x1Ot8dwoJ301QyGlqpmNkauzkR8cTmu2VFTdqqgHX/wlfDX/wAUaP8Aw6t/0AJC4tk1uzPHLdfbRLJPa7hA2opppYJIHPjcm7XckjWuTdOvVE6AdqBirWnik0t4fKdHZ1mNBZ6pzeeO3I5ZqyRPJWwMRX7e9URPeBEzI+2n0itta6G04rll5hau3pHcwQMcntRHS8360QDmxXtodHrxXNgvOOZVj8Tl/wC0up4aiNvzoyTm/U1QJjaSa6YFrtYlu+CZTb8jpGbJK2lk2lgVfKSJ2z41/tIgHkdVuMzRrQ/LX4xm+b09hvrIWVDqOWjqZVSN+/K7mjjc3rsvmB5KHtJOG6omjij1Po3SSORrU+51am6quyf1IEklqI/R+/5v4rl5+b3bb7gQV4qeP/QbO+G/UjHMa1Gpa++3Wx1VHR0rKCras0j2K3kRXQo1N91TdVT5wKRgJ6dlFxBaZ8PuSaiXDUPI4McfcaSjgoJZqaaZZEa+V0rU7pjtv6tV328gLVtHeLbSXX7IKux4BmNPkV1pKZayanipaiJWQo5rFfvJG1F9Z7U2Rd+oGF+1o+JXkv6Rt/7w0Ch0C5bsTPi+Zx9KHfulOBYkB4vVjWXCtDMW++LO8hpccs6zNp21FSjnK+R2+zGMYiucuyKuzUXZEVV6IoGGf4Svhr/4o0f+HVv+gB67SvjO0b1ty2LGMHzOPIb5JE+dKWnt9W3aNibuc574ka1E6dXKnVUTxVEAzYBwVlZT26lmqqueOmpoWq+SaZ6MYxqeKq5eiJ71Aifqx2o+geltXPRRZHUZhcId0dDjVP6THzJ5d85Wxr87XKBhp3bb6apKqNwDKli36OV9Mjtvbt3n7NwMw6Q9qVoPqvcKe3TXyrwy5TqjY4clgSCNzl8u+a50af3nIBKLIsvs2KYncMnulfFTWG30j6+prk3kYyBjFe6T1UVXJypv0Rd/ICP38JXw1/8AFGj/AMOrf9ADIejXFPpZxBXK40Gn2WwZHV26Fs9VFFSzwrGxy8qLvJG1F69Om4GVwAAAAAAAAAAAAAAAAAAAAAAACOnH7rvNw+cMOU363z9xfq9rbRa3ouzmVE+7VkT3sjSR6e9iAa8bnK9yucqucq7qq+Kgeg0+wG+ao5rZsTxqhfcb5dqhtLS07OnM5fNV8mom6qq9ERFVfAC9DhK7OXTnhyslDcLxbaPMc9VjX1N4uEKSxU8m3VtNG5NmNTw51TnXx3TfZAlqxjY2ta1qNa1NkaibIiAYP4ieDTS7iWsdRTZPj1PS3lzFSnyG3RNhr6d3kveInroi/Ifu33b9QKIuJzhuybhb1TrcNyRrZ2o30i33KJqpFXUyqqNlbv4Luio5vyXIqdeiqGJgJbdnvwX2Xi9zC+Mv+TvtFpx9IJqq20TP5XWMkVyJyPcitY1FZsrtlX1k2TzQLt9INDsG0GxeOwYLjtHYLeiJ3iwN3mqHIm3PLIu7pHe9yr7ugEfeLvs28A4naipyKgk+8zO3pu67UcKOhrHbdPSYunMvh67VR3t5tkQCs/Uvsr+IHT6ulZQ4zT5jQI5UjrbDVsk5k8lWORWSIu35Kp71A8BQcBPEJcqlsEWk2RRvcu3NUU6Qs+tz1RP2gSZ0L7GjP8nraet1PvVHhtoRyLJb7dI2rr5G+beZN4o9+nrbv2/FAtV0W0Mwvh+wunxfB7LFaLZGvPI5PWmqZNtlklkXq9y+1fDwREREQD3wAAAAAa43HB8bzV36R1f21A5eBf44Gkn0gpvtAbGgFZvac9oN96FPctH9NrltfZWup8gvVK/rRMVNnUsTk/rVRVR7k+Anqp6yryhUSBZl2aHZ3/ffJbNXNTrav3CY5tTYLHUt/wC2uRd21MzV/qk23Y1fh+K+rtzBbqibJsnRAK7O0V7SKXRurrdM9MKqJ+Zozkut7REe21bp+CiReiz7Kiqq7ozfwV3wQp5vd9uWS3aqul3r6m6XOqkWWorKyZ0s0z18XOe5VVV96qB+EAB7DSnVvK9Es1oMrwy81FmvNG9FbJC5eSVvnHI3wex3grV3RQMj8ZPELS8T+qVszqGjW3Vs9io6W4Umy8kVXGjklSNV8WKqorVXrsuy9UAwvYP59tv5zH9pANodf9nV/Nf/ANANWkAAAsL7FFUTiLzJN+q4tIu3/wBVTgTX7Wj4leS/pG3/ALw0Ch0C5bsTPi+Zx9KHfulOBOXVPVLGtF8Du2YZdco7XYrZF3k0zurnr4NjY3xc9y7I1qdVVQNf3jB4tsk4tdS5b5clkt+O0Suhs1kR+7KSFV+E7bo6V2yK53zInREAxrpPpRlGtueWvD8Ptkl1vlwk5Y4mdGRtT4UkjvBjGp1Vy+CAX+8HvCJjPCRp0yz2zkuWSVyNlvN8fGiSVUqJ8Bvm2JvVGt+dV6qoGVNTNSsd0gwW8ZflVwZbLFaoFnqJ3dVXyRrW+LnOVUa1qdVVUQCh7jD49s54qr7VUaVM+O4BHL/I8dppVRJGp4SVLk/CyL47L6rfBE8VUIwAAAEn+HvjdyXTHSrONLMiq6m9YNf7DXW+ihkcr5LXUyQObG6JV8IlcqI5ngm/MmyoqOCMAFlnYg/0m6m/oel/6zgLfAAAAAAAAAAAAAAAAAAAAAAAACrntwcqmgselWNtVUp6morrhIiL0V0bYo27/VK79oFToFl3Yn6W0d4z7Pc+q4Wy1FkpILbQucm/dvqFe6Rye/kiRu/sevtAt6AAAIC9shpZRZTw32/NEgal1xe6RIk+3rejVC909m/s7xYV+r3gUogTl7HbJ6iy8Wz7ZG53o94sNXTys8t2LHM131d2qf3lAvDAAAAAAAAAAAADXG44Pjeau/SOr+2oHLwL/HA0k+kFN9oCz7tJOP8Aj0Es1Rp3gdcyTUS4Q8tXWxO3+4sD29Hf89yLu1Pkp6y/J3ClGoqJayolnnlfPPK5XySyOVznuVd1VVXqqqvmBYT2bXZ5y6vV9DqfqPb3xYPSyJLarVUM2+7EjV+G9F/+Haqf+YvT4KLuFzEUTKeJkUTGxxMajWsYmyNROiIieSAYW4ydfGcNnD1lOZxOZ912RJR2mJ6bo+slXlj6eaN6yKnsjUDXMudzq71cqu4V9TLWV1XM+eoqJnK58sjlVznuVeqqqqqqvvAyfw08NeW8UmpNNiWKQNYiN76vuc6L6PQU++yySKnj7GtTq5entVAuV0V7LrQzSi0wNuuOtz298qd/csg3kY53nyU6L3bU9m6OX8pQMkX/AIG9Aslt8lHWaT4zHE9FRX0VElLKnzSRcrk+pQK5eOHsrH6RY5cM90pqKy8Y3RNWe42GrXvKqiiRN3SxPRN5Y2+KtVOZqdd3JvsFcgH77B/Ptt/OY/tIBtH29qOttMipuixNRUX5kAjbxo6UYRZuFDVWtoMNx+irYMfqnxVFPa4GSRuRnRzXIzdF96Aa+YFlfYt4dYMuv2q7L7Y7be2QU1tdElxo46ju1V1Rvy86Ltvsm+3jsnsAtex/AMXxOqkqbHjdos1TIzu3zW+hige5m6LyqrGoqpuiLt7gIsdrR8SvJf0jb/3hoFDoFwHY9ZZZ8E4V9SshyC409psttyGSpq62pfyxxRtpKfdVX9iJ4quyJ1UCEfHdxs3fi1zzuKF09t09tMrktNsevK6Z3VFqZkT+sci9E+Q1dk6q5VCPmAYBf9UsxtWLYvbZrvfLnMkFNSwN3Vyr4qq+CNRN1Vy9ERFVeiAX58EvBdj3CPgSRbQXXOblGi3i9oz4XmkEO/VsTV+ZXKnMvkjQkoBTn2xvEdU5TqZb9I7XVq2y44yOtujI3dJ66RnMxrvakcTk298rvYBXGBYjwMdlrLrRj9vz7VGorLNidY1JrdZqRe7qq+NfCV71T+Lid4t2TmcnVFamyqFkeP8AA1oFjFvjo6PSfGZImIiI+tokqpV29skvM5frUDHWsnZeaE6qWuZtsxpuCXhWqkNxx5ViYxfLmgVe7cnt2RF/KQCm/if4Ycu4VNRpMWyiNlRDM1Z7ddqdq+j18G+3O3fwcng5i9Wr7UVFUMQAWWdiD/Sbqb+h6X/rOAt8AAAAAAAAAAAAAAAAAAAAAAAAKrO3DxuZ7NJ7+2P+TxrcKGSTb5Tu4exP1Nf+0CqoC0XsQ89o6W9am4ZNIxldWQ0l1pmKqIr2RLJHLt7du9i/WBbGAAAQc7YLPaPGeE2TH5ZGrXZLdqWmgi39ZWQv9Ie9PcixsRf7aAUdATb7ICy1F04wqariaqxW2x11TM5E6I1yMiT/APKVALzQAAAAAAAAAAAA1xuOD43mrv0jq/tqBjTTfUC7aV5zZsusL4or1aJ0qqSSaNHsZKiLyuVq9F2Vd9l6dAOqv1+uOU3uuvF3rZ7ldK6Z9RVVdS9XyTSOXdznKviqqoE0OzY4F6fiXyObNMudE7T+w1aQy29sv8bcalGo9IXIi7siRHNVyrsrt+VPNWheDQ0NNa6Kno6OnipKOnjbDDTwMRkcTGps1rWp0RERERETw2A/QBV523+aTU+PaXYnG9yQ1dTW3OdqL0VYmxRx7+38NJ+oCpoC+PsrtE6LSvhXst8Wna2+Ziq3esn5fXWJVVtOzf8AFSNEcie2R3tAmKAA+JYmVET4pWNkie1WuY9N0ci9FRU80A10eOPRil0G4n83xW2xJBZkqUr7fE3wjp52pK2NPczmVie5oGF7B/Ptt/OY/tIBtIW7+b6X/lN/yQDC3HH8UHVz6O1X2ANckC0LsOf9otXfzW2fbqQLZgIc9rR8SvJf0jb/AN4aBQ6B7CHVnJqbSibTmnuDqfE6i6reamjiTl9JqO7ZG1ZF+U1qRorW+CKqr47bB5m12yovNzo7fSNbJVVczIIWue1iK9zka1Fc5UROqp1VURAL7OArgZtHCfhqXO7NguepF1hRLlcGeuykYvX0aBdvgp05neL1TfwRqIEsgP4q7AayuvuZT6ha355klRL30lyvdZUI5V39RZXcifU3lT6gPWcGmjkGvPEtguHV0XfWqqrfSLgzfbnpoWrNK1V8uZrFb/eA2Oqenio6eKCCJkMETUZHFG1GtY1E2REROiIieQHKAAiT2n2ilDq3wp5HcXU7XXvE2Le6CoRu72tZ+HZv48roubdPa1q+QFBoFlnYg/0m6m/oel/6zgLfAAAAAAAAAAAAAAAAAAAAAAAACJ/abaJTa08Kd/8AudTrU3rGpG32kYxu7ntiRUmanzxOkXbzVqAUDge90L1mv/D/AKp2HOsbkalytU3OsMir3dRE5FbJC/b5L2qrV9m+6dUQDYH4a+K3AeKPD4Lvid0jbcmxI6vsVRIiVlC/za9nym7+D27tX277ogZkA8bqrq/h+iWI1WS5rfqWw2mnaq95UP8AXld+JGxPWkevk1qKoFCHG5xcXLi41X+7fcSW3FrWx1JZLZI7d0cSru6WTbp3kioirt0REa3deXdQjwBN7sueJzTThuz/ACZ2fLV26ov8EFHS3tkfe01IxrnOe2VqeuiOcrF5kRUTk6oniBdxj2R2rLrLSXeyXKku9qq2JJT1tDM2aGVvta9qqioBh7iW4ytNOFi1tfl12dPe541kpLBbUSWtnTyXl3RGN3TbmeqJ47br0Arl1L7arUK8VkseD4dZMboEd/Fy3Nz66ocntXZWMTf2bLt7VAx/b+1/4gqSpbJPVY5Wxp4wzWlGtXr7WPRf2gSb0K7aPH7/AF0Ft1UxR2MrI5G/dqyPfU0zfe+BU7xqe9qvX3AWNYjmFkz7HaG/45daS92WujSWmrqKVJIpW+5U/UqeKKmy9QO4AAAAADXG44Pjeau/SOr+2oHleHfTWi1i1uw3CLhUzUVHfrgygfUwIivi50VEeiL0XZdl289tgPwaz6Q5DoTqXfMIyem9Hu1qnWNzkRe7njXqyWNV8WPaqORfft4ooGVuBvi2uXCbq7BdJHy1OHXVWUt+tzPW54d/VmYn/eRqqqntRXN+VuBsF47kNty2w2+9WathuVpuEDKmlq6d3NHNE9N2uavsVFQDsQKku3DtsseYaUXBUXuJqCvgRdunMySFy/skQCsQDY54Icgo8m4RtJayic10MeO0lG5GeDZIGJDIn1PjcgGbwAAChrtYMlpMi4zcjipJGyfcygoqCVWrv/GJEj3J9XebfUBEuwfz7bfzmP7SAbSFu/m+l/5Tf8kAwtxx/FB1c+jtV9gDXJAtC7Dn/aLV381tn26kC2YCHPa0fEryX9I2/wDeGgUOgZ2w/hcuuoHCnkmrtgWatqMYvr6G625rd9qLuIXpUM26+o57udPxVR3TlUDBIF0vZZca6axYhFpbmFdzZrYaZEt1VO/1rnRMTZEVV8ZYk2RfNzdndVRygWBgfL05mOT2psBq45lQS2vL75RTt5Z6avnhkaqbbObI5F/agEpeymyOjx/jSxRlY5rEuNJW0ML3eUroHOb9a8nL/eAvrAAAMMcZuU0mHcKeq1xrVakLsdrKRqO+VJNGsLE+fmkaBrfAWWdiD/Sbqb+h6X/rOAt8AAAAAAAAAAAAAAAAAAAAAAAAPiSNsrHMe1HscnK5rk3RU80VAKH+0b4K6zhp1JqMkx+ic/TfIKh0lDJE31bfO7dzqR/sROqsXzb08WqBDoD99iyC6YvdILlZrlWWi4wLzRVlBO6GaNfa17VRU+pQM40XH7xDUFuSii1XvywI1Gosr45JNk/8RzVd+0DEWcaj5VqZdlumW5HdMkuHglRdKt9Q5qexvMq8qe5NkA84BkPRbh/z3iFvlwtOA4/Pfq2gpHVlSjHtjZHGngiveqNRzl6Nbvu5fDwXYPH5Li94wy+Vdmv1rq7NdqR6x1FFXQuhmid7HNciKgGS9AuLDU7houUlRg2Ry0dHMqrPaqpO/opl225nQu6I5Pxm7L08dugGOsyzO96hZRcsjyO51F4vdxmdPVVtU/mfI9f8k8kROiIiIiIiAdMAAASj4FeNi+8KOfwU1ZUT1+nd0na272vfm7nfp6TCnlI3xVE6PRNl68qoF/Nnu9FkFporpbamOtt9bCyppqmF3MyWN7Ucx7V80VFRUA/YAAAANcbjg+N5q79I6v7agcvAv8cDST6QU32gLYu0u4Mm8R+mv31YzRI/UPGoXSUzYk9e40qes+mX2uTq5nv3b8sCiuSN0T3Me1WPaqo5rk2VF80VALJeyj42vvIvVPozmtw5cfuUy/e9W1D/AFaKpcqqtMqr4MkVd2+x67fL6BcCBA/thtJKjOuGyhyqhhWapxC5Nqpkam6pSzIkUi/MjliVfcir5AUjgWadkrxm2rB++0bzS4R2+grqpanH7hUvRsUc7/wlK9y9G867OYv4yuTxc0C3QABh7ik4mcX4WtL6/Kb/AFMcle5jorVaUf8Ax1fU7eqxqePKi7K53g1Pfsihrp5vmN01CzG95Pe6haq73islrquZflSyPVztk8k3XonkmyAfjsH8+2385j+0gG0hbv5vpf8AlN/yQDC3HH8UHVz6O1X2ANckC0LsOf8AaLV381tn26kC2YCHPa0fEryX9I2/94aBQ6Bcj2LFJBX8OWfU1TDHUU02SyRywytRzHtWjgRWuReioqKqKgEIu0S4OpuFvVZ1dZKZ66e5DI+e0yoiq2kk8ZKRy+1u+7d/Fip4q1wEZ8IzW9ac5dacnx2vktl7tVQyqpKqJfWY9q9PnRfBUXoqKqL0UDYZ4O+KKzcV2j9DlFEkdJfKbalvVra7daSqROuyePdv+ExfYu3i1QM5ga8vaFaSz6P8Wmd29YFht91q1vdA75L4ajeRdv7MiyM+digYLwvL7pgGXWbJbJUupLvaKuKtpJm/Ikjcjmr703TqnmgGxXws8TmL8U2mFDlFgqI4rixjYrtaFfvNQVO3rMcnirVXdWu8HJ70VEDMYACo7tbeMq15mkGjOGXGO4UNFUtqshrqZ6OifMz8HStcnR3Ivrv8uZGJ4tcgFZAFlnYg/wBJupv6Hpf+s4C3wAAAAAAAAAAAAAAAAAAAAAAAAAdFm2EWHUfFrjjmT2qmvVjuESw1NFVs5mSNX9qKnijk2VFRFRUVAKheKzsi8xwOurb9pF3mY40qul+4kj0S5Uib/BZvsk7U8ttn+XK5eqhX9fseumLXSa2Xm21dpuMC8stJXQOhlYvva5EVAOvA5aammrKiOCnifPPI5GsijarnOcvgiInVVAmHwz9l7qvrnWUdwyKgm09xF7mukr7tCrauZnivc0y7OVVTwc/lb718ALl9BOHzCuG7BIMVwm1pRUbVSSpqpV56msl26yzP+U79SInREROgHVcQXCnptxM2NaDNsfhqayNitpbxSokVdS/2JUTfb8h27V80A19+IPTi26Qa2ZnhVnust7t1iuMtBHXTxJG+TkXZ27UVU3R27d08eXfZN9gPB0dJNX1cNLTROnqJ3tjiijTdz3OXZGonmqqqIBd9wY9mZgujmH22+aiWOhy/UCqjbPOy4xJPSW1VRFSGKN27XOb4LIqKqqi8uyeISpynQfTjNrNJab7gmPXK3vbydxNbYtmp+SqN3avvRUVAKce0e4CqbhfulDmGFrPNp9eKhadaWdyySWup2VyRK9ero3Ijlaq9U5VRVXoqhCAC8PshdYKnUXhllxuvndNW4dXut8bnru70SRO9h+pFWRie5iIBOUAAAAa43HB8bzV36R1f21A5eBf44Gkn0gpvtAbGgFOHau8F3/s5yebWHEKHkxi9VG17pIGerQ1r1/DIieEcq+Psev5aIgV0RyOie17HKx7V5muauyovkqKBeh2afGqziP09+9HKa1rtRcdga2Z8i7OudKmzW1Ke16dGye9Ud8rZAmFlGNW3M8bulhvFKyutNzppKOrppE9WWJ7Va5q/OiqBrt8X3C5fuFPVuvxq4xy1NiqHOqLLdnN9SspVXpuvh3jejXt8lTfwc1VDB6LsBKfRjtLNddFrTBaKXJIsls8CI2GjyKD0pYmp0RrZd0kRNuiIrlRNuiIBkrJe2U1vvNA6ntttxawzORU9KpqGSV7feiSSObv86KBDvU3VnMNZcmlyDNsirsju8icvpFbJvyN/FY1Nmsb+S1ET3AdBc7JX2ZlE6vo5qRtbTtq6bvmK3vYXKqNkbv4tVWrsvnsB/bB/Ptt/OY/tIBtIW7+b6X/lN/yQDC3HH8UHVz6O1X2ANckC0LsOf9otXfzW2fbqQLZgIc9rR8SvJf0jb/3hoFDoFy3YmfF8zj6UO/dKcCZfEHoZj/EZpRe8GyOP+SV8fNT1TWoslHUNRe6nZ+U1fLzRVReiqBrp6zaRZDoVqVfMIyem9Hu1qnWNzkRe7njXqyWNV8WPaqORff16oqAe94PeKO9cKOr1Fk9D3lXY6nlpb1a2u2SrpVXrt5d4z4TF9vTwcoGwzg2bWXUfD7RlGO10dysl1pmVVJVRL0exyfsVOqKi9UVFReqARL7TTg8qOJLS6DIsXpO/z3F2PlpYWInPX0q9ZKdPa5Nudnv5m/LAosqKeWknkhmjfDNG5WPjkarXNci7KiovgqKB6fTXVXLtHclhyDC8hrscu8acqVNDLy8zfxXt+C9v5LkVPcBMTF+2S1wstA2nuVvxfIJWoiJU1VDJFIvvVIpGt3+ZEAxzrL2mGu2s1pqLRU5HDjFoqEVs1JjkPorpGr8l0u6ybeSojkRd+qKBGK2WmuvlW6noKWatqO7kmWOFqucjGMV73Lt5Na1zlXyRFUD8YFlnYg/0m6m/oel/6zgLfAAAAAAAAAAAAAAAAAAAAAAAAAAAAYq4mMGxvLdFc5mvmP2u8S0lhr5qeSvo453QyNp3q17Fciq1yKiKipsqbAa1gF6HZO4VjsXCRi2QssNsZf6irr2zXRtHGlVIjaqRrUdLtzKiIiIib9EQCbAAABrLcQSzO151HWo5++++O483efC39Jk8QPT8GUVtm4r9J2XdGLQrkdHuknwVf3qd3v8A3+QDZCAARR7UWK2ycEefrceTmY6hdSq/xSf0yFG8vv2VyfMqgUCgWqdhw6XbWBqc3cf+61Xp6vN/Ktvr23AtUAAAAFMXFD2cGvWpnERqHlVgxSlqrJd71UVlHO+600ayRPfu1Va56KnTyVAPvhX7OLXjTDiL09yvIMVpaSyWi8QVdZOy600ixxtX1lRrXqq/MiAXNAdNmWH2fUDFbrjeQUEVzst0pn0tXSTJu2SNybKnuXzRU6oqIqdUApU1R7JDWqxZ/e6LDLRS5HirKhy224y3KngkkgXq1Hse5FR7UXlXpsqoqp0VAOTSfs+eLLRbUKyZni2NUlDerTOk0L/uzS8r08HRvTvPWY9qq1yeaKoF02GXS7XrFLTXX6zrj96np2PrLWs7J/RptvXYkjFVr0Rd9nJ4pt4eAHmNbtCML4hsIqMVzezx3S3SLzwyp6s9LJtsksMnix6e3wVOioqKqAVH8QHZCao6e19TW6eSQ6g49urooWyMp7jE3fwfG5Ua/wCdjt1/FQCImSaB6mYfVvpr3p9k9rmavKqVVoqGIvzKrNlT3oB+nEeHPVPPKxlLj+neT3SR68vNDapu7b/aerUa1PeqoBO/hT7H2/XS70WQa1yxWmzxK2VMYoahJKqpXovLPKxeWNntRiq5eqbs8QO57QDgA1X1k17jvWnGJ0MuJ0tkorbStZXU9MyJIWub3bY3ORWtamyJ02Ajtaeyv4jqS6Uc8mG0aMimY9y/dmk8Ecir/WAXu0cboaOCN6bOZG1qp70QDGfFLgt41N4ddQ8Ux+mbV3u72eeko4HyNjR8jm7NRXOVET51UCmT+Cn4kf8Acyj/AMZpP9QCdXZbcJWpnDNedQ6jUCyQWmK709CyjWGthqOdY3TK/fu3Lttzt8faBYIBG7tBdG8r154Zb3h+GUEdyv1TWUc0VPJOyFFbHM1z15nqidERfMCqL+Cn4kf9zKP/ABmk/wBQCyfsxOHXOuG3SDKbFn1qitNyrr66tgiiqo6hHRLTws33jcqJ6zHdAJjgQ37RnghXimwikvmK00DNSLGnJSOkkbE2vpldu+ne9eiKiqrmKvRF5k6I5VQK2f4KfiR/3Mo/8ZpP9QCdvZuaR8Q3DZVV2EZ/i0S6e1yvqqaqjutPM+2VO267Ma9VWOTbqiJ0dsvm4CwECE3GT2Y2IcSFwrMsxariwrPZ/XnnSLmorg/8adjerXr5yN6r8prlAq61T7PrXrSaqmbcNPrleqONelwx6NbhC9Pxto0V7U/tNQDDrtK81ZUrTuxC/NqEdy90tsn59/Zty77gZh0m7P7XfWCsgZbsBuNkoZF63LIonW+BifjfxiI9yf2GuAsz0r7Ni1aBcPWo1DanR5dqtkeOVtsbdJUSGKJ0sLmpBT834NjnKnM9y7u267J0Ar9/gp+JH/cyj/xmk/1AJtdl5wgao8NOc5xcc/sUFppLpboKelfFXQ1Cve2VXKm0blVOi+KgWKAAAAAAAAAAAAAAAAAAAAAAAAAAAAw7xTaoYfgGjOaU2SZParHVV9iroKSnrqtkUtQ98D2taxirzOVXKidEXqoGtyBeH2Tup+IS8LGMYg3JrV99VLVVzprKtWxKtiPqZHMXulXmVFaqLuiL0UCcoAABQD2mekVTpRxcZdL3DmWvJHpfaGTl2a9JvwqJ5erMkqbezb2gRct9fU2qvpq2jnfTVdNI2aGaJdnRvau7XIvkqKiKBetwado7geveI2y05ffKHFdRaeJsNZSXCRtPBXPROs1O9yo1ebbdY90c1VVERU2VQlJk+p+H4VZ5btf8os9ntsbFkdVVtdHGzZE36KruvTyQCm/tLuPO28SFZQ4JgcssmC2mpWpqLi9ro/unUoita5rV2VImIrtuZEVyuVdk2QCBwF3fY+6RVGA8NVZlFfA6Csy+4urIke3ZVpIk7qJfmV3euT3OQCdoAAAAAAAAAAAAAAAAAAAAAAAAAAAAAAAAAAAAAAAAAAAAAAAAAAAAAAAAAAAAAAAAAAAAAAFZnH12ok+BXm56caP1ML71Sq6nuuUbNlZSyeDoaZF3R0jV3Rz13RqoqIiqm6BU5keS3fMLzU3e+3OrvF1qnc89bXTumlkX2uc5VVQOtA5KeolpJ454JXwzRuR7JI3K1zVTwVFTqigWE8Enam5JpvdbdiGrlwqMkw6VzYIb7UKstdbfJFe/xmiTz33eidUVduUC5K23KkvNvpa+gqYqyhqomzwVMD0fHLG5N2ua5OioqKioqAfpAi7x+8HsHFlpQ2G2dzTZzYlkqbLVS+q2VVRO8pnu8mycrdl8nNavhuBQblGL3fCshuFiv1tqbReaCZ0FVQ1caxywvTxRzV//ALzA6sD6dI96IjnK5E8N132A+QJJ8EXBrf8Aix1Ip4XU9RQ4JbZWyXq88qtajEVF9Hidtssz06InyUVXL4IihsC2Gw2/FrHb7NaaSOgtdvp46SlpYU2ZDExqNYxqexEREA7AAAAAAAAAAAAAAAAAAAAAAAAAAAAAAAAAAAAAAAAAAAAAAAAAAAAAAAAAAAAAAAAAAAAAAEUO0n4lKnhz4dqx1kqvRcsyWVbTbJWLs+BHNVZp2+xWM6Ivk57FAoHe9ZHK5yq5yruqqvVVAydw/wDDdnfEzmf3uYNavTZo2pJV1s7u7paKNfB80my8qLsuyIiuXboigT4tnYeXGSyq+46s0sF35ekNLZXSU6L7Od0zXKnv5fqAh7xTcDmpHCfUw1GR0sN2xmpk7qmyC1q59M5/kyRFRHRvXbojk2Xrsq7LsEegLeuxw4lqvLMXvWkF9q3VFTYYvuhZHyu3d6I520sPXyje5qt90ip4NQCy4ABH7if4IdM+Kqh73Jbc625LEzkp8jtm0dWxE8Gv3TaVifivRdvJW7gVtak9jJq3jlZM7D77Ycvt6Kvd97K6hqVTfpux6Kzf/wAwDwdD2S/EbV1LIpcatVExy9Z571TqxvzoxznfqRQJL6D9izBR1lPctW8tZXxM2ctjx3max6+aPqHojtvLZrEVfxkAsswbAsd0zxehxzFbPSWKx0TeSCioo0Yxiea+1VXxVy7qq9VVVA78AAAAAAAAAAAAAAAAAAAAAAAAAAAAAAAAAAAAAAAAAAAAAAAAAAAAAAAAAAAAAAAAAAAAAACnbttMrmrdY8BxzvH+jW+xvrUj39Xnmnc1V+faBoFcAGwd2dGjNt0d4U8MbTUrY7tkFIy93OoVuz5pZ05mIq+xkasaie5V81Ak0B5LVfTSy6xac5BhmQ0rKq1XikfSytcm6sVU9WRvsc12zkXyVqKBrKZDZ5cdv9ztU6o6ahqpaV6p5uY9Wr+1AJH9mllc+KcaWnTopHMiuE89una35bJaeRERf7/Iv1AbBIAAAAAAAAAAAAAAAAAAAAAAAAAAAAAAAAAAAAAAAAAAAAAAAAAAAAAAAAAAAAAAAAAAAAAAAAAAAAAACn3ttsOnotVtPsoSJ3otws8tvWXbp3kMyv2/VOgFbIF+/Zn68WrWThfxq2RVbFyLFKdlnuVGrk7xiRptDLt48r40b18OZHp5ASxA8DrrrHYtBNKshzfIKmOCjtdM58UT3bOqZ1TaKFiebnu2RE96r4Iqga0V6us9+vNfc6lUWpraiSplVPN73K5f2qoEm+zGw2fMONHA1jj54LS6oulQv4rI4Ho1f/UdGn1gbAAAAAAAAAAAAAAAAAAAAAAAAAAAAAAAAAAAAAAAAAAAAAAAAAAAAAAAAAAAAAAAAAAAAAAAAAAAAAAAACNPaB8NEnE5w9XO0WuFsmV2eT7q2bfoskzGqjod/wDxGK5qeXNyKvgBr5VdJNQVU1NUwyU9TC9Y5YZWq18b0XZWuReqKioqKigex0h1nzLQjMafKMHvtRYrvEnI6SLZ0c0e6KscjHIrXsXZPVci+CL4oigTdtnbX6o01oZBWYTi1bcGs2Wrb6RG1y/jLGj1/UigRO4iuLPUniivFPWZzekno6Ryuo7RRR9zRUqqmyq2NFXd23TmcrnbdN9ugGHQLl+yD4XqrTfT25ap5DRuprzlUTYLXDMmz4re13N3m3l3r0RyfksYqfCAsRAAAAAAAAAAAAAAAAAAAAAAAAAAAAAAAAAAAAAAAAAAAAAAAAAAAAAAAAAAAAAAAAAAAAAAAAAAAAAAAAK++PbsyKfXS41mf6ZeiWjOJd5LhaplSKmurv8AvEd4RzL5qvqv81au7lCoTUTS3LtJb/LZMyxy445c416wXCBY+ZPax3g9vvaqp7wPLAdhYMduuVXWntllttXd7lUO5YaOhgdNNIvsaxqKqgWX8EvZPXSqu1uzXW2jbQ26nek1Nh71R0tS5OrVqlRdmM3692m6r4O5U3RQtlhhjpoY4YY2xRRtRjI2Js1qJ0RERPBEA5AAAAAAAAAAAAAAAAAAAAAAAAAAAAAAAAAAAAAAAAAAAAAAAAAAAAAAAAAAAAAAAAAAAAAAAAAAAAAAAAAB0+T4fYs1ty0GQWW33yhXxprjSsnj+fleioBiWfgd0BqqtKmTSTFe96rsy3ta1d/a1PVX9QGSMI0rw3TSmWDE8Vs2NxK3lclroY6dXJ7FVqIq/WB6oAAAAAAAAAAAAAAAAAAAAAAAAAAAAAAAAAAAAAAAAAAAAAAAAAAAAAAAAAAAAAAAAAAAAAAAAAAAAAAAAAAAAAAAAAAAAAAAAAAAAAAAAAAAAAAAAAAAAAAAAAAAAAAAAAAAAAAAAAAAAAAAAAAAAAAAAAAAAAAAAAAAAAAAAAAAAAAAAAAAAAAAAAAAAAAAAAAAAAAAAAAAAAAAAAAAAAAAAAAAAAAAAAAAAAAAAAAAAAAAAAAAAAAAAAAAAAAAAAAAAAAAAAAAAAAAAAAAAAAAAAAAAAAAAAAAAAAAAAAAAAAAAAAAAAAAAAAAAAAAAAAAAAAAAAAAAAAAAAAAAAAAAAAAAAAAAAAAAAAAAAAAAAAAAAAAAAAAAAAAAAAAAAAAAAAAAAAAAAAAAAAAAAAAAAAAAAAAAAAAAAAAAAAAAAAAAAAAAAAAAAAAAAAAAAAAAAAAAAAAAAAAAAAAAAAAAAAAAAAAAAAAAAAAAAAAAAAAAAAAAAAAAAAAAAAAAAAAAAAAAAAAAAAAAAAAAAAAAAAAAAAAAAAAAAAAAAAAAAAAAAAAAAAAAAAAAAAAAAAAAAAAAAAAAAAAAAAAAAAAAAAAAAAAAAAAAAAAAAAAAAAAAAAAAAAAAAAAAAAAAAAAAAAAAAAAAAAAAAAAAAAAAAAAAAAAAAAAAAAAAAAAAAAAAAAAAAAAAAAAAAAAAAAAAAAAAAAAAAAAAAAAAAAAAAAAAAAAAAAAAAAAAAAAAAAAAAAAAAAAAAAAAAAAAAAAAAAAAAAAAAAAAAAAAAAAAAAAAAAAAAAAAAAAAAAAAAAAAAAAAAAAAAAAAAAAAAAAAAAAAAAAAAAAAAAAAAAAAAAAAAAAAAAAAAAAAAAAAAAAAAAAAAAAAAAAAAAAAAAAAAAAAAAAAAAAAAAAAAAAAAAAAAAAAAAAAAAAAAAAAAAAP//Z;" parent="1" vertex="1">
          <mxGeometry x="560" y="265" width="76.93" height="50" as="geometry" />
        </mxCell>
        <mxCell id="n1MMODj_7CmGyAd2-wIu-10" value="1" style="ellipse;whiteSpace=wrap;html=1;aspect=fixed;" parent="1" vertex="1">
          <mxGeometry x="330" y="210" width="20" height="20" as="geometry" />
        </mxCell>
        <mxCell id="n1MMODj_7CmGyAd2-wIu-11" value="2" style="ellipse;whiteSpace=wrap;html=1;aspect=fixed;" parent="1" vertex="1">
          <mxGeometry x="394" y="210" width="20" height="20" as="geometry" />
        </mxCell>
        <mxCell id="n1MMODj_7CmGyAd2-wIu-13" value="3" style="ellipse;whiteSpace=wrap;html=1;aspect=fixed;" parent="1" vertex="1">
          <mxGeometry x="330" y="350" width="20" height="20" as="geometry" />
        </mxCell>
        <mxCell id="n1MMODj_7CmGyAd2-wIu-14" value="4" style="ellipse;whiteSpace=wrap;html=1;aspect=fixed;" parent="1" vertex="1">
          <mxGeometry x="394" y="350" width="20" height="20" as="geometry" />
        </mxCell>
        <mxCell id="n1MMODj_7CmGyAd2-wIu-15" value="5" style="ellipse;whiteSpace=wrap;html=1;aspect=fixed;" parent="1" vertex="1">
          <mxGeometry x="500" y="295" width="20" height="20" as="geometry" />
        </mxCell>
      </root>
    </mxGraphModel>
  </diagram>
</mxfile>
